# xmcd CD Database Entry
#
# Track frame offsets:
# 150
# 18475
# 36290
# 51672
# 63462
# 83162
# 99870
# 119707
# 136650
# 154552
#
# Disc length: 2213 seconds
#
# Revision: 2
# Processed by: cddbd v1.4PL0 Copyright (c) Steve Scherf et al.
# Submitted via: tcd 2.0b
#
DISCID=8108a30a
DTITLE=Illapu - En estos días
DYEAR=2001
DGENRE=Rock
TTITLE0=Lejos del amor
TTITLE1=No te salves
TTITLE2=Palabras de nuestro tiempo
TTITLE3=Bailando en Isluga
TTITLE4=Waylas de Cala Cala
TTITLE5=Del pozo de mis sueños
TTITLE6=Cariquima
TTITLE7=Volaras
TTITLE8=Un poco de mi vida
TTITLE9=Me habita la confianza
EXTD=\nYEAR: 2001  ID3G:  17
EXTT0=
EXTT1=
EXTT2=
EXTT3=
EXTT4=
EXTT5=
EXTT6=
EXTT7=
EXTT8=
EXTT9=
PLAYORDER=
